<?xml version="1.0" encoding="utf-8"?>
<!DOCTYPE svg PUBLIC "-//W3C//DTD SVG 1.1//EN" "http://www.w3.org/Graphics/SVG/1.1/DTD/svg11.dtd">
<svg version="1.1" xmlns="http://www.w3.org/2000/svg" xmlns:xlink="http://www.w3.org/1999/xlink" x="0px" y="0px" viewBox="0 0 1000 1000" enable-background="new 0 0 1000 1000" xml:space="preserve">
<g><g><path d="M638.9,426.7c0,20.4-7.2,37.7-21.6,52c-14.4,14.2-31.8,21.3-52.2,21.3H426.7V352.9h138.4c20.4,0,37.8,7.2,52.2,21.6C631.7,388.9,638.9,406.3,638.9,426.7L638.9,426.7z M736.8,426.7c0-47.4-16.7-87.9-50-121.4c-33.4-33.5-73.9-50.3-121.7-50.3H328.3v490h98.4V597.9h138.4c47.4,0,87.9-16.7,121.4-50S736.8,474.1,736.8,426.7L736.8,426.7z M990,500c0,66.4-12.9,129.8-38.8,190.3S890.5,803,846.7,846.7c-43.8,43.8-95.9,78.6-156.4,104.5S566.4,990,500,990c-66.4,0-129.8-12.9-190.3-38.8c-60.5-25.9-112.7-60.7-156.4-104.5C109.5,803,74.7,750.8,48.8,690.3S10,566.4,10,500c0-66.4,12.9-129.8,38.8-190.3c25.9-60.5,60.7-112.7,104.5-156.4c43.8-43.8,95.9-78.6,156.4-104.5C370.2,22.9,433.6,10,500,10c66.4,0,129.8,12.9,190.3,38.8S803,109.5,846.7,153.3c43.8,43.8,78.6,95.9,104.5,156.4C977.1,370.2,990,433.6,990,500z"/></g></g>
</svg>